# Blender v2.78 (sub 0) OBJ File: ''
# www.blender.org
mtllib wr1.mtl
o hw1s1f4rs-1s_int_00_Untitled.002
v -0.232000 0.000001 0.259998
v -0.231999 2.100001 -0.300003
v -0.232000 0.000001 -0.280003
v -0.232000 0.000001 -0.300003
v -0.250000 0.000001 -0.300003
v -0.250000 2.100001 -0.300003
v -0.250000 2.100001 0.260000
v -0.232000 2.100001 -0.274002
v -0.232000 0.000001 -0.274002
v -0.241000 2.100001 -0.274002
v -0.241000 0.000001 -0.274002
v -0.241000 0.000001 -0.280003
v -0.241000 2.100001 -0.280003
v -0.232000 2.100001 -0.280003
v -0.232000 0.430001 -0.274002
v 0.232000 0.430001 -0.274002
v 0.232000 0.448001 -0.274002
v 0.232000 0.430001 0.239998
v -0.232000 0.448001 0.239998
v -0.232000 0.448001 -0.274002
v -0.232000 0.430001 0.239998
v 0.232000 0.448001 0.239998
v -0.232000 0.760001 -0.274002
v 0.232000 0.760001 -0.274002
v 0.232000 0.778001 -0.274002
v -0.232000 0.778001 -0.274002
v -0.232000 0.778001 0.239998
v 0.232000 0.760001 0.239998
v -0.232000 0.760001 0.239998
v 0.232000 0.778001 0.239998
v -0.232000 1.750378 -0.274002
v 0.232000 1.750378 -0.274002
v 0.232000 1.768378 0.239998
v 0.232000 1.768378 -0.274002
v -0.232000 1.768378 -0.274002
v -0.232000 1.750378 0.239998
v 0.232000 1.750378 0.239998
v -0.232000 1.768378 0.239998
v 0.250000 0.000001 0.260000
v -0.250000 0.000001 0.260000
v 0.250000 0.000001 -0.300003
v 0.250000 2.100001 -0.300003
v 0.232000 0.000001 0.259998
v 0.232000 0.000001 -0.274002
v 0.250000 2.100001 0.260000
v 0.232000 0.000001 -0.280003
v 0.232000 0.000001 -0.300003
v 0.232000 2.100001 -0.280003
v 0.241000 2.100001 -0.280003
v 0.241000 0.000001 -0.280003
v 0.241000 2.100001 -0.274002
v 0.241000 0.000001 -0.274002
v 0.232000 2.100001 -0.274002
v -0.241000 0.109001 -0.274002
v -0.241000 0.109001 -0.280003
v -0.241000 2.091001 -0.280003
v 0.241000 2.091001 -0.274000
v 0.241000 2.091001 -0.280003
v -0.241000 2.091001 -0.274000
v 0.241000 0.109001 -0.274002
v 0.241000 0.109001 -0.280003
v 0.232000 2.091001 -0.274002
v -0.232000 2.091001 -0.280003
v -0.232000 2.091001 -0.274002
v -0.232000 2.082001 -0.274002
v -0.232000 2.082001 0.259998
v -0.231999 2.100001 0.259998
v 0.232000 2.082001 0.259998
v 0.232000 2.082001 -0.300003
v 0.232001 2.100001 -0.300003
v -0.232000 2.082001 -0.280003
v -0.232000 2.082001 -0.300003
v 0.232000 2.082001 -0.280003
v 0.232000 2.091001 -0.280003
v 0.232001 2.100001 0.259998
v 0.232000 2.082001 -0.274002
v -0.232000 0.100001 -0.280003
v 0.232000 0.100001 -0.300003
v 0.232000 0.100001 0.259998
v -0.232000 0.118001 -0.300003
v -0.232000 0.100001 -0.300003
v 0.232000 0.118001 -0.280003
v -0.232000 0.118001 -0.280003
v 0.232000 0.118001 -0.300003
v 0.232000 0.109001 -0.280003
v -0.232000 0.109001 -0.280001
v -0.231989 0.118001 -0.274002
v 0.232000 0.109001 -0.274002
v -0.231989 0.109001 -0.274002
v -0.231000 0.118001 0.259998
v 0.232000 0.118001 -0.274002
v 0.232000 0.118001 0.259998
v -0.231000 0.100001 0.259998
v 0.232000 1.090001 -0.274002
v 0.232000 1.108001 -0.274002
v 0.232000 1.090001 0.239998
v -0.232000 1.108001 0.239998
v -0.232000 1.108001 -0.274002
v -0.232000 1.090001 -0.274002
v -0.232000 1.090001 0.239998
v 0.232000 1.108001 0.239998
v 0.232000 1.438001 -0.274002
v 0.232000 1.420001 -0.274002
v 0.232000 1.420001 0.239998
v -0.232000 1.438001 0.239998
v -0.232000 1.438001 -0.274002
v -0.232000 1.420001 -0.274002
v -0.232000 1.420001 0.239998
v 0.232000 1.438001 0.239998
vt 0.3885 0.0100
vt 0.3885 0.1109
vt 0.0100 0.1109
vt 0.0100 0.0100
vt 0.3653 0.6726
vt 0.7438 0.6726
vt 0.7438 0.6758
vt 0.3653 0.6758
vt 0.7696 0.7049
vt 0.7696 0.7016
vt 0.7732 0.7016
vt 0.7732 0.7033
vt 0.7743 0.7033
vt 0.8705 0.7049
vt 0.7743 0.7016
vt 0.8705 0.7016
vt 0.7438 0.6432
vt 0.7438 0.6468
vt 0.3653 0.6468
vt 0.3653 0.6432
vt 0.3653 0.7016
vt 0.7438 0.7016
vt 0.7438 0.7049
vt 0.3653 0.7049
vt 0.7696 0.6170
vt 0.7696 0.6138
vt 0.8659 0.6138
vt 0.8659 0.6154
vt 0.8669 0.6154
vt 0.8705 0.6170
vt 0.8669 0.6138
vt 0.8705 0.6138
vt 0.4143 0.1062
vt 0.4143 0.0100
vt 0.7928 0.0100
vt 0.7928 0.1062
vt 0.3653 0.8182
vt 0.7438 0.8182
vt 0.7438 0.8198
vt 0.3653 0.8198
vt 0.3653 0.9559
vt 0.3653 0.9548
vt 0.7438 0.9548
vt 0.7438 0.9559
vt 0.3653 0.8731
vt 0.7438 0.8731
vt 0.7438 0.8747
vt 0.3653 0.8747
vt 0.9551 0.7888
vt 0.9551 0.7920
vt 0.8715 0.7920
vt 0.8715 0.7888
vt 0.8964 0.6432
vt 0.9890 0.6432
vt 0.9890 0.6464
vt 0.8964 0.6464
vt 0.4857 0.5011
vt 0.4857 0.5847
vt 0.3930 0.5847
vt 0.3930 0.5011
vt 0.8623 0.9581
vt 0.7696 0.9581
vt 0.7696 0.9548
vt 0.8623 0.9548
vt 0.0100 0.6974
vt 0.0100 0.6138
vt 0.1026 0.6138
vt 0.1026 0.6974
vt 0.2469 0.7494
vt 0.2469 0.7462
vt 0.3305 0.7462
vt 0.3305 0.7494
vt 0.7135 0.5800
vt 0.7135 0.5832
vt 0.6299 0.5832
vt 0.6299 0.5800
vt 0.7484 0.9817
vt 0.8410 0.9817
vt 0.8410 0.9849
vt 0.7484 0.9849
vt 0.2211 0.6138
vt 0.2211 0.6974
vt 0.1284 0.6974
vt 0.1284 0.6138
vt 0.1026 0.9827
vt 0.0100 0.9827
vt 0.0100 0.9794
vt 0.1026 0.9794
vt 0.5115 0.5847
vt 0.5115 0.5011
vt 0.6041 0.5011
vt 0.6041 0.5847
vt 0.8787 0.8763
vt 0.8787 0.8731
vt 0.9624 0.8731
vt 0.9624 0.8763
vt 0.2121 0.8556
vt 0.2121 0.8588
vt 0.1284 0.8588
vt 0.1284 0.8556
vt 0.6299 0.5574
vt 0.7225 0.5574
vt 0.7225 0.5606
vt 0.6299 0.5606
vt 0.2211 0.7232
vt 0.2211 0.8068
vt 0.1284 0.8068
vt 0.1284 0.7232
vt 0.8623 0.9037
vt 0.7696 0.9037
vt 0.7696 0.9005
vt 0.8623 0.9005
vt 0.0100 0.9163
vt 0.0100 0.8326
vt 0.1026 0.8326
vt 0.1026 0.9163
vt 0.8787 0.8489
vt 0.8787 0.8456
vt 0.9624 0.8456
vt 0.9624 0.8489
vt 0.0100 0.1367
vt 0.3885 0.1367
vt 0.3885 0.2377
vt 0.0100 0.2377
vt 0.3653 0.7630
vt 0.3653 0.7597
vt 0.7438 0.7597
vt 0.7438 0.7630
vt 0.8705 0.6464
vt 0.7743 0.6464
vt 0.7743 0.6448
vt 0.8705 0.6432
vt 0.7696 0.6432
vt 0.7732 0.6448
vt 0.7732 0.6464
vt 0.7696 0.6464
vt 0.0100 0.2635
vt 0.3885 0.2635
vt 0.3885 0.3597
vt 0.0100 0.3597
vt 0.3653 0.7339
vt 0.3653 0.7307
vt 0.7438 0.7307
vt 0.7438 0.7339
vt 0.8705 0.6758
vt 0.8669 0.6758
vt 0.8669 0.6742
vt 0.8705 0.6726
vt 0.7696 0.6726
vt 0.8659 0.6742
vt 0.8659 0.6758
vt 0.7696 0.6758
vt 0.7438 0.6174
vt 0.3653 0.6174
vt 0.3653 0.6138
vt 0.7438 0.6138
vt 0.3653 0.8473
vt 0.3653 0.8456
vt 0.7438 0.8456
vt 0.7438 0.8473
vt 0.3653 0.9279
vt 0.7438 0.9279
vt 0.7438 0.9290
vt 0.3653 0.9290
vt 0.3653 0.9021
vt 0.3653 0.9005
vt 0.7438 0.9005
vt 0.7438 0.9021
vt 0.9871 0.5316
vt 0.6299 0.5316
vt 0.6299 0.5305
vt 0.9871 0.5305
vt 0.7715 0.2635
vt 0.7715 0.3503
vt 0.4143 0.3503
vt 0.4143 0.2635
vt 0.9317 0.5574
vt 0.9317 0.5585
vt 0.8449 0.5585
vt 0.8449 0.5574
vt 0.0100 0.5880
vt 0.0100 0.5011
vt 0.3672 0.5011
vt 0.3672 0.5880
vt 0.8417 0.4665
vt 0.8417 0.4676
vt 0.7548 0.4676
vt 0.7548 0.4665
vt 0.3653 0.9817
vt 0.7225 0.9817
vt 0.7225 0.9828
vt 0.3653 0.9828
vt 0.8385 0.4455
vt 0.8385 0.4471
vt 0.7548 0.4471
vt 0.7548 0.4455
vt 0.9414 0.4466
vt 0.8578 0.4466
vt 0.8578 0.4455
vt 0.9414 0.4455
vt 0.9735 0.7630
vt 0.8899 0.7630
vt 0.8899 0.7597
vt 0.9735 0.7597
vt 0.8705 0.8214
vt 0.7743 0.8214
vt 0.7743 0.8198
vt 0.7732 0.8214
vt 0.7696 0.8214
vt 0.7696 0.8182
vt 0.7732 0.8198
vt 0.8705 0.8182
vt 0.8899 0.7339
vt 0.8899 0.7307
vt 0.9735 0.7307
vt 0.9735 0.7339
vt 0.8964 0.6726
vt 0.9800 0.6726
vt 0.9800 0.6762
vt 0.8964 0.6762
vt 0.8475 0.7920
vt 0.7512 0.7920
vt 0.7512 0.7888
vt 0.8475 0.7904
vt 0.8522 0.7888
vt 0.8486 0.7904
vt 0.8522 0.7920
vt 0.8486 0.7920
vt 0.8668 0.4245
vt 0.8668 0.4229
vt 0.9505 0.4229
vt 0.9505 0.4245
vt 0.8002 0.2204
vt 0.8002 0.1367
vt 0.9011 0.1367
vt 0.9011 0.2204
vt 0.4921 0.3855
vt 0.4921 0.4691
vt 0.3959 0.4691
vt 0.3959 0.3855
vt 0.8186 0.0100
vt 0.9195 0.0100
vt 0.9195 0.0934
vt 0.8222 0.0936
vt 0.8186 0.0936
vt 0.7696 0.7630
vt 0.7696 0.7597
vt 0.7732 0.7597
vt 0.7732 0.7614
vt 0.7743 0.7614
vt 0.7743 0.7597
vt 0.8705 0.7597
vt 0.8705 0.7630
vt 0.9652 0.9581
vt 0.8816 0.9581
vt 0.8816 0.9548
vt 0.9652 0.9548
vt 0.8669 0.7323
vt 0.8669 0.7307
vt 0.8705 0.7307
vt 0.8669 0.7339
vt 0.8705 0.7339
vt 0.1284 0.8798
vt 0.1284 0.8782
vt 0.2121 0.8782
vt 0.2121 0.8798
vt 0.8964 0.7052
vt 0.8964 0.7016
vt 0.9800 0.7016
vt 0.9800 0.7052
vt 0.8255 0.5811
vt 0.7419 0.5811
vt 0.7419 0.5800
vt 0.8255 0.5800
vt 0.2469 0.7688
vt 0.3305 0.7688
vt 0.3305 0.7704
vt 0.2469 0.7704
vt 0.7973 0.3469
vt 0.7973 0.2635
vt 0.8935 0.2635
vt 0.8935 0.3471
vt 0.9438 0.9849
vt 0.8603 0.9849
vt 0.8603 0.9817
vt 0.9438 0.9817
vt 0.8659 0.7323
vt 0.7696 0.7339
vt 0.8659 0.7307
vt 0.7696 0.7307
vt 0.9652 0.9279
vt 0.9652 0.9312
vt 0.8816 0.9312
vt 0.8816 0.9279
vt 0.8964 0.6138
vt 0.9890 0.6138
vt 0.9890 0.6170
vt 0.8964 0.6170
vt 0.7290 0.3855
vt 0.7290 0.4691
vt 0.6364 0.4691
vt 0.6364 0.3855
vt 0.8623 0.9312
vt 0.7696 0.9312
vt 0.7696 0.9279
vt 0.8623 0.9279
vt 0.0100 0.8068
vt 0.0100 0.7232
vt 0.1026 0.7232
vt 0.1026 0.8068
vt 0.7419 0.5606
vt 0.7419 0.5574
vt 0.8255 0.5574
vt 0.8255 0.5606
vt 0.9652 0.9005
vt 0.9652 0.9037
vt 0.8816 0.9037
vt 0.8816 0.9005
vt 0.8643 0.3855
vt 0.9569 0.3855
vt 0.9569 0.3888
vt 0.8643 0.3888
vt 0.3395 0.6138
vt 0.3395 0.6974
vt 0.2469 0.6974
vt 0.2469 0.6138
vt 0.8475 0.4261
vt 0.7548 0.4261
vt 0.7548 0.4229
vt 0.8475 0.4229
vt 0.5180 0.4691
vt 0.5180 0.3855
vt 0.6106 0.3855
vt 0.6106 0.4691
vt 0.8899 0.8214
vt 0.8899 0.8182
vt 0.9735 0.8182
vt 0.9735 0.8214
vn -1.0000 0.0000 0.0000
vn 0.0001 -0.0000 1.0000
vn -0.0000 -1.0000 0.0000
vn 1.0000 -0.0000 0.0000
vn 0.0000 0.0000 -1.0000
vn 0.0000 1.0000 -0.0000
vn 0.0006 1.0000 -0.0000
vn 0.0000 0.0000 1.0000
vn -0.0001 0.0000 1.0000
vn -0.0006 1.0000 0.0000
vn -0.0001 0.0001 1.0000
vn -0.9107 0.3333 -0.2440
vn 1.0000 -0.0001 -0.0000
vn -1.0000 0.0002 0.0001
vn -1.0000 0.0001 0.0000
vn -1.0000 -0.0000 0.0006
vn -1.0000 0.0000 0.0009
vn 0.0000 0.0002 1.0000
vn -1.0000 0.0000 0.0019
usemtl Dirt
s 1
f 7/1/1 6/2/1 5/3/1
f 5/3/1 40/4/1 7/1/1
f 1/5/2 67/6/2 7/7/2
f 7/7/2 40/8/2 1/5/2
f 5/9/3 4/10/3 3/11/3
f 5/9/3 3/11/3 12/12/3
f 5/9/3 12/12/3 11/13/3
f 40/14/3 5/9/3 11/13/3
f 11/13/3 9/15/3 1/16/3
f 40/14/3 11/13/3 1/16/3
f 2/17/4 14/18/4 3/19/4
f 3/19/4 4/20/4 2/17/4
f 5/21/5 6/22/5 2/23/5
f 2/23/5 4/24/5 5/21/5
f 7/25/6 67/26/6 8/27/6
f 7/25/6 8/27/6 10/28/7
f 7/25/6 10/28/7 13/29/6
f 6/30/6 7/25/6 13/29/6
f 13/29/6 14/31/6 2/32/6
f 6/30/6 13/29/6 2/32/6
f 1/33/4 9/34/4 8/35/4
f 8/35/4 67/36/4 1/33/4
f 11/37/5 10/38/5 8/39/5
f 8/39/5 9/40/5 11/37/5
f 11/41/4 12/42/4 13/43/4
f 13/43/4 10/44/4 11/41/4
f 3/45/8 14/46/8 13/47/8
f 13/47/8 12/48/8 3/45/8
f 17/49/5 16/50/5 15/51/5
f 15/51/5 20/52/5 17/49/5
f 17/53/4 22/54/4 18/55/4
f 18/55/4 16/56/4 17/53/4
f 17/57/6 20/58/6 19/59/6
f 19/59/6 22/60/6 17/57/6
f 15/61/1 21/62/1 19/63/1
f 19/63/1 20/64/1 15/61/1
f 15/65/3 16/66/3 18/67/3
f 18/67/3 21/68/3 15/65/3
f 18/69/8 22/70/8 19/71/8
f 19/71/8 21/72/8 18/69/8
f 25/73/5 24/74/5 23/75/5
f 23/75/5 26/76/5 25/73/5
f 25/77/4 30/78/4 28/79/4
f 28/79/4 24/80/4 25/77/4
f 25/81/6 26/82/6 27/83/6
f 27/83/6 30/84/6 25/81/6
f 23/85/1 29/86/1 27/87/1
f 27/87/1 26/88/1 23/85/1
f 23/89/3 24/90/3 28/91/3
f 28/91/3 29/92/3 23/89/3
f 28/93/8 30/94/8 27/95/8
f 27/95/8 29/96/8 28/93/8
f 34/97/5 32/98/5 31/99/5
f 31/99/5 35/100/5 34/97/5
f 34/101/4 33/102/4 37/103/4
f 37/103/4 32/104/4 34/101/4
f 34/105/6 35/106/6 38/107/6
f 38/107/6 33/108/6 34/105/6
f 31/109/1 36/110/1 38/111/1
f 38/111/1 35/112/1 31/109/1
f 31/113/3 32/114/3 37/115/3
f 37/115/3 36/116/3 31/113/3
f 37/117/8 33/118/8 38/119/8
f 38/119/8 36/120/8 37/117/8
f 41/121/4 42/122/4 45/123/4
f 45/123/4 39/124/4 41/121/4
f 41/125/5 47/126/5 70/127/5
f 70/127/5 42/128/5 41/125/5
f 43/129/3 44/130/3 52/131/3
f 39/132/3 43/129/3 52/131/3
f 41/133/3 39/132/3 52/131/3
f 41/133/3 52/131/3 50/134/3
f 41/133/3 50/134/3 46/135/3
f 41/133/3 46/135/3 47/136/3
f 43/137/1 75/138/1 53/139/1
f 53/139/1 44/140/1 43/137/1
f 43/141/9 39/142/9 45/143/9
f 45/143/9 75/144/9 43/141/9
f 70/145/6 48/146/6 49/147/6
f 42/148/6 70/145/6 49/147/6
f 45/149/6 42/148/6 49/147/6
f 45/149/6 49/147/6 51/150/10
f 45/149/6 51/150/10 53/151/6
f 45/149/6 53/151/6 75/152/6
f 70/153/1 47/154/1 46/155/1
f 46/155/1 48/156/1 70/153/1
f 46/157/8 50/158/8 49/159/8
f 49/159/8 48/160/8 46/157/8
f 52/161/1 51/162/1 49/163/1
f 49/163/1 50/164/1 52/161/1
f 52/165/5 44/166/5 53/167/5
f 53/167/5 51/168/5 52/165/5
f 56/169/1 55/170/1 54/171/1
f 54/171/1 59/172/1 56/169/1
f 56/173/5 58/174/5 61/175/5
f 61/175/5 55/176/5 56/173/5
f 56/177/6 59/178/6 57/179/6
f 57/179/6 58/180/6 56/177/6
f 54/181/8 60/182/8 57/183/8
f 57/183/8 59/184/8 54/181/8
f 54/185/3 55/186/3 61/187/3
f 61/187/3 60/188/3 54/185/3
f 61/189/4 58/190/4 57/191/4
f 57/191/4 60/192/4 61/189/4
f 62/193/5 76/194/5 65/195/5
f 65/195/5 64/196/5 62/193/5
f 63/197/3 74/198/3 62/199/3
f 62/199/3 64/200/3 63/197/3
f 66/201/8 68/202/8 75/203/11
f 75/203/11 67/204/12 66/201/8
f 68/205/13 76/206/4 62/207/13
f 73/208/4 69/209/13 70/210/13
f 74/211/13 73/208/4 70/210/13
f 62/207/13 74/211/13 70/210/13
f 68/205/13 62/207/13 70/210/13
f 75/212/11 68/205/13 70/210/13
f 72/213/5 2/214/14 70/215/13
f 70/215/13 69/216/5 72/213/5
f 73/217/3 71/218/3 72/219/3
f 72/219/3 69/220/3 73/217/3
f 65/221/1 66/222/15 67/223/12
f 64/224/15 65/221/1 67/223/12
f 64/224/15 67/223/12 2/225/14
f 63/226/15 64/224/15 2/225/14
f 63/226/15 2/225/14 72/227/1
f 71/228/1 63/226/15 72/227/1
f 73/229/8 74/230/8 63/231/8
f 63/231/8 71/232/8 73/229/8
f 67/233/12 75/234/11 70/235/13
f 70/235/13 2/236/14 67/233/12
f 68/237/3 66/238/3 65/239/3
f 65/239/3 76/240/3 68/237/3
f 78/241/3 79/242/3 93/243/3
f 78/241/3 93/243/3 77/244/3
f 78/241/3 77/244/3 81/245/3
f 78/246/4 84/247/4 82/248/4
f 78/246/4 82/248/4 85/249/4
f 78/246/4 85/249/4 88/250/4
f 88/250/4 91/251/4 92/252/4
f 78/246/4 88/250/4 92/252/4
f 78/246/4 92/252/4 79/253/4
f 78/254/5 81/255/5 80/256/5
f 80/256/5 84/257/5 78/254/5
f 86/258/16 83/259/1 80/260/1
f 77/261/17 86/258/16 80/260/1
f 77/261/17 80/260/1 81/262/1
f 85/263/8 82/264/8 83/265/18
f 83/265/18 86/266/18 85/263/8
f 82/267/6 84/268/6 80/269/6
f 80/269/6 83/270/6 82/267/6
f 89/271/6 88/272/6 85/273/6
f 85/273/6 86/274/6 89/271/6
f 87/275/5 91/276/5 88/277/5
f 88/277/5 89/278/5 87/275/5
f 90/279/6 92/280/6 91/281/6
f 91/281/6 87/282/6 90/279/6
f 93/283/8 79/284/8 92/285/8
f 92/285/8 90/286/8 93/283/8
f 89/287/19 86/258/16 77/261/17
f 89/287/19 77/261/17 93/288/19
f 87/289/19 89/287/19 93/288/19
f 87/289/19 93/288/19 90/290/19
f 95/291/5 94/292/5 99/293/5
f 99/293/5 98/294/5 95/291/5
f 95/295/4 101/296/4 96/297/4
f 96/297/4 94/298/4 95/295/4
f 95/299/6 98/300/6 97/301/6
f 97/301/6 101/302/6 95/299/6
f 99/303/1 100/304/1 97/305/1
f 97/305/1 98/306/1 99/303/1
f 99/307/3 94/308/3 96/309/3
f 96/309/3 100/310/3 99/307/3
f 96/311/8 101/312/8 97/313/8
f 97/313/8 100/314/8 96/311/8
f 102/315/5 103/316/5 107/317/5
f 107/317/5 106/318/5 102/315/5
f 102/319/4 109/320/4 104/321/4
f 104/321/4 103/322/4 102/319/4
f 102/323/6 106/324/6 105/325/6
f 105/325/6 109/326/6 102/323/6
f 107/327/1 108/328/1 105/329/1
f 105/329/1 106/330/1 107/327/1
f 107/331/3 103/332/3 104/333/3
f 104/333/3 108/334/3 107/331/3
f 104/335/8 109/336/8 105/337/8
f 105/337/8 108/338/8 104/335/8
