# Blender v2.76 (sub 0) OBJ File: ''
# www.blender.org
mtllib com_m_clean_top.mtl
o com_m_w_clean_sh_00
v -66.631599 78.938408 -46.375290
v -66.631599 55.395107 -46.375294
v -66.631599 55.395107 -45.587891
v -66.631599 78.938408 -45.587887
v -48.993801 55.395107 -46.375294
v -48.993801 78.938408 -46.375290
v -48.993801 78.938408 -45.587887
v -48.993801 55.395107 -45.587891
vt -0.787400 23.543301
vt -0.787400 0.000000
vt 0.000000 0.000000
vt 0.000000 23.543301
vt 0.787400 0.000000
vt 0.787400 23.543301
vt -1.968500 0.000000
vt 15.669300 0.000000
vt 15.669300 23.543301
vt -1.968500 23.543301
vt -15.669300 0.000000
vt 1.968500 0.000000
vt 1.968500 23.543301
vt -15.669300 23.543301
vt 1.968500 0.787400
vt -15.669300 0.787400
vt 15.669300 0.787400
vt -1.968500 0.787400
vn -1.000000 -0.000000 0.000000
vn 1.000000 0.000000 0.000000
vn 0.000000 -0.000000 1.000000
vn 0.000000 0.000000 -1.000000
vn 0.000000 -1.000000 0.000000
vn 0.000000 1.000000 0.000000
usemtl wire_204204204.001
s 1
f 1/1/1 2/2/1 3/3/1 4/4/1
f 5/5/2 6/6/2 7/4/2 8/3/2
f 3/7/3 8/8/3 7/9/3 4/10/3
f 5/11/4 2/12/4 1/13/4 6/14/4
f 2/15/5 5/16/5 8/11/5 3/12/5
f 6/17/6 1/18/6 4/7/6 7/8/6
o com_m_w_clean_handles_00
v -46.985901 61.401009 -45.115490
v -46.985901 61.403507 -44.800388
v -46.985901 57.305008 -44.800392
v -46.985901 57.305607 -45.115494
v -47.773300 61.401009 -45.115490
v -47.773300 61.400009 -45.587788
v -46.985901 61.400009 -45.587788
v -46.985901 56.930508 -45.587791
v -46.985901 56.930508 -45.114891
v -47.773300 56.930508 -45.114891
v -47.773300 56.930508 -45.587791
v -47.773300 61.812408 -45.587788
v -46.985901 61.812408 -45.587788
v -47.773300 57.305607 -45.115494
v -46.985901 57.305508 -45.587791
v -47.773300 57.305508 -45.587791
v -47.773300 61.403507 -44.800388
v -47.773300 57.305008 -44.800392
v -47.773300 61.812408 -45.114887
v -46.985901 61.812408 -45.114887
v -46.985901 61.812408 -44.800388
v -46.985901 56.930508 -44.800392
v -47.773300 61.812408 -44.800388
v -47.773300 56.930508 -44.800392
v -50.135502 61.401009 -45.115490
v -50.135502 61.403507 -44.800388
v -50.135502 57.305008 -44.800392
v -50.135502 57.305607 -45.115494
v -50.922901 61.401009 -45.115490
v -50.922901 61.400009 -45.587788
v -50.135502 61.400009 -45.587788
v -50.135502 56.930508 -45.587791
v -50.135502 56.930508 -45.114891
v -50.922901 56.930508 -45.114891
v -50.922901 56.930508 -45.587791
v -50.922901 61.812408 -45.587788
v -50.135502 61.812408 -45.587788
v -50.922901 57.305607 -45.115494
v -50.135502 57.305508 -45.587791
v -50.922901 57.305508 -45.587791
v -50.922901 61.403507 -44.800388
v -50.922901 57.305008 -44.800392
v -50.922901 61.812408 -45.114887
v -50.135502 61.812408 -45.114887
v -50.135502 61.812408 -44.800388
v -50.135502 56.930508 -44.800392
v -50.922901 61.812408 -44.800388
v -50.922901 56.930508 -44.800392
vt 158.344193 4.311500
vt 157.977997 4.272700
vt 157.977997 1.260600
vt 158.344193 1.197500
vt -1912.801880 158.396301
vt -1912.135132 158.396301
vt -1912.135132 158.697006
vt -1912.801880 158.697006
vt -1912.801880 158.644699
vt -1912.801880 158.311401
vt -1912.135132 158.311401
vt -1912.135132 158.644699
vt -1912.801880 4.500000
vt -1912.135132 4.500000
vt -1912.135132 4.833300
vt -1912.801880 4.833300
vt -1912.801880 4.248700
vt -1912.801880 1.252200
vt -1912.135132 1.252200
vt -1912.135132 4.248700
vt 1912.801880 158.557098
vt 1912.135132 158.557098
vt 1912.135132 158.256302
vt 1912.801880 158.256302
vt 1912.801880 4.272700
vt 1912.135132 4.272700
vt 1912.135132 1.260600
vt 1912.801880 1.260600
vt 1912.135132 158.644699
vt 1912.135132 158.311401
vt 1912.801880 158.311401
vt 1912.801880 158.644699
vt -1912.135132 0.700000
vt -1912.135132 1.033300
vt -1912.801880 1.033300
vt -1912.801880 0.700000
vt -157.977997 1.260600
vt -157.977997 4.272700
vt -158.344193 4.311500
vt -158.344193 1.197500
vt 158.311401 4.833300
vt 157.977997 4.833300
vt 157.977997 0.700000
vt 158.311401 0.700000
vt 1912.801880 4.833300
vt 1912.135132 4.833300
vt 1912.135132 0.700000
vt 1912.801880 0.700000
vt -157.977997 4.833300
vt -158.311401 4.833300
vt -158.311401 0.700000
vt -157.977997 0.700000
vt -1912.801880 157.977997
vt -1912.135132 157.977997
vt 1912.135132 157.977997
vt 1912.801880 157.977997
vt 158.644699 4.500000
vt 158.644699 4.833300
vt 158.644699 0.700000
vt 158.644699 1.033300
vt -158.644699 4.833300
vt -158.644699 4.500000
vt -158.644699 1.033300
vt -158.644699 0.700000
vn 1.000000 -0.000000 0.000000
vn 0.000000 -1.000000 0.002100
vn 0.000000 -1.000000 0.000000
vn 0.000000 0.000000 -1.000000
vn 0.000000 1.000000 -0.000200
vn 0.000000 -0.000000 1.000000
vn 0.000000 1.000000 0.000000
vn -1.000000 -0.000000 0.000000
usemtl wire_204204204.001
s 1
f 9/19/7 10/20/7 11/21/7 12/22/7
f 9/23/8 13/24/8 14/25/8 15/26/8
f 16/27/9 17/28/9 18/29/9 19/30/9
f 15/31/10 14/32/10 20/33/10 21/34/10
f 9/35/10 12/36/10 22/37/10 13/38/10
f 23/39/11 24/40/11 22/41/11 12/42/11
f 10/43/12 25/44/12 26/45/12 11/46/12
f 20/47/13 27/48/13 28/49/13 21/50/13
f 19/51/10 24/52/10 23/53/10 16/54/10
f 26/55/14 25/56/14 13/57/14 22/58/14
f 9/19/7 28/59/7 29/60/7 10/20/7
f 30/61/7 17/62/7 12/22/7 11/21/7
f 29/63/12 31/64/12 25/44/12 10/43/12
f 32/65/12 30/66/12 11/46/12 26/45/12
f 31/67/14 27/68/14 13/57/14 25/56/14
f 18/69/14 32/70/14 26/55/14 22/58/14
f 30/71/9 32/72/9 18/29/9 17/28/9
f 31/73/13 29/74/13 28/49/13 27/48/13
f 9/19/7 15/75/7 21/76/7 28/59/7
f 16/77/7 23/78/7 12/22/7 17/62/7
f 20/79/14 14/80/14 13/57/14 27/68/14
f 22/58/14 24/81/14 19/82/14 18/69/14
f 33/19/7 34/20/7 35/21/7 36/22/7
f 33/23/8 37/24/8 38/25/8 39/26/8
f 40/27/9 41/28/9 42/29/9 43/30/9
f 39/31/10 38/32/10 44/33/10 45/34/10
f 33/35/10 36/36/10 46/37/10 37/38/10
f 47/39/11 48/40/11 46/41/11 36/42/11
f 34/43/12 49/44/12 50/45/12 35/46/12
f 44/47/13 51/48/13 52/49/13 45/50/13
f 43/51/10 48/52/10 47/53/10 40/54/10
f 50/55/14 49/56/14 37/57/14 46/58/14
f 33/19/7 52/59/7 53/60/7 34/20/7
f 54/61/7 41/62/7 36/22/7 35/21/7
f 53/63/12 55/64/12 49/44/12 34/43/12
f 56/65/12 54/66/12 35/46/12 50/45/12
f 55/67/14 51/68/14 37/57/14 49/56/14
f 42/69/14 56/70/14 50/55/14 46/58/14
f 54/71/9 56/72/9 42/29/9 41/28/9
f 55/73/13 53/74/13 52/49/13 51/48/13
f 33/19/7 39/75/7 45/76/7 52/59/7
f 40/77/7 47/78/7 36/22/7 41/62/7
f 44/79/14 38/80/14 37/57/14 51/68/14
f 46/58/14 48/81/14 43/82/14 42/69/14
o com_m_w_clean_carcass_00
v -65.962303 55.355709 -46.375294
v -65.962303 55.355713 -59.367393
v -65.962303 78.977707 -59.367390
v -65.962303 78.977707 -46.375290
v -66.670898 55.355713 -59.367393
v -66.670898 55.355709 -46.375294
v -66.670898 78.977707 -46.375290
v -66.670898 78.977707 -59.367390
v -31.237900 55.355709 -46.375294
v -31.237900 55.355713 -59.367393
v -31.237900 78.977707 -59.367390
v -31.237900 78.977707 -46.375290
v -31.946600 55.355713 -59.367393
v -31.946600 55.355709 -46.375294
v -31.946600 78.977707 -46.375290
v -31.946600 78.977707 -59.367390
v -65.962303 78.269104 -46.375290
v -65.962303 78.269104 -59.367390
v -31.946600 78.269104 -59.367390
v -31.946600 78.269104 -46.375290
v -31.946600 56.143108 -46.356491
v -31.946600 56.143108 -48.324993
v -65.962303 56.143108 -48.324993
v -65.962303 56.143108 -46.356491
v -31.946600 55.355709 -48.324993
v -31.946600 55.355709 -46.356491
v -65.962303 55.355709 -46.356491
v -65.962303 55.355709 -48.324993
v -31.946600 57.324211 -59.367393
v -65.962303 57.324211 -59.367393
v -31.946600 55.355713 -58.579994
v -31.946600 57.324211 -58.579994
v -65.962303 57.324211 -58.579994
v -65.962303 55.355713 -58.579994
vt 0.000000 0.000000
vt 12.992100 0.000000
vt 12.992100 23.622000
vt 0.000000 23.622000
vt -12.992100 0.000000
vt -12.992100 23.622000
vt 0.000000 12.992100
vt 0.708700 0.000000
vt 0.708700 12.992100
vt 0.708700 23.622000
vt -0.708700 12.992100
vt -0.708700 0.000000
vt -0.708700 23.622000
vt -11.811000 12.992100
vt -11.811000 0.000000
vt 22.204700 0.000000
vt 22.204700 12.992100
vt 11.811000 -0.000000
vt 11.811000 12.992100
vt -22.204700 12.992100
vt -22.204700 -0.000000
vt -12.992100 -0.708700
vt 0.000000 -0.708700
vt -11.811000 -0.708700
vt 22.204700 -0.708700
vt 12.992100 -0.708700
vt -22.204700 -0.708700
vt 11.811000 -0.708700
vt -34.015701 1.968500
vt -34.015701 0.000000
vt 0.000000 1.968500
vt 34.015701 0.000000
vt 34.015701 1.968500
vt -0.787400 1.968500
vt -0.787400 0.000000
vt -34.015701 -0.787400
vt 0.000000 -0.787400
vt 0.787400 0.000000
vt 0.787400 1.968500
vt 34.015701 -0.787400
vn 1.000000 0.000000 0.000000
vn -1.000000 0.000000 0.000000
vn 0.000000 -1.000000 -0.000000
vn 0.000000 0.000000 -1.000000
vn 0.000000 1.000000 0.000000
vn 0.000000 -0.000000 1.000000
vn -0.707100 -0.500000 -0.500000
vn 0.707100 -0.500000 -0.500000
usemtl wire_204204204.001
s 1
f 57/83/15 58/84/15 59/85/15 60/86/15
f 61/87/16 62/83/16 63/86/16 64/88/16
f 58/89/17 57/83/17 62/90/17 61/91/17
f 59/86/18 58/83/18 61/90/18 64/92/18
f 60/83/19 59/89/19 64/93/19 63/94/19
f 57/83/20 60/86/20 63/95/20 62/94/20
f 65/83/15 66/84/15 67/85/15 68/86/15
f 69/87/16 70/83/16 71/86/16 72/88/16
f 66/89/17 65/83/17 70/90/17 69/91/17
f 67/86/18 66/83/18 69/90/18 72/92/18
f 68/83/19 67/89/19 72/93/19 71/94/19
f 65/83/20 68/86/20 71/95/20 70/94/20
f 59/96/19 60/97/19 71/98/19 72/99/19
f 73/100/17 74/101/17 75/102/17 76/103/17
f 60/83/16 59/87/16 74/104/16 73/105/16
f 71/98/20 60/97/20 73/106/20 76/107/20
f 72/84/15 71/83/15 76/105/15 75/108/15
f 59/100/18 72/103/18 75/109/18 74/110/18
f 77/111/19 78/112/19 79/83/19 80/113/19
f 81/114/17 82/115/17 83/113/17 84/83/17
f 78/83/15 77/113/15 82/116/15 81/117/15
f 79/83/18 78/112/18 81/118/18 84/119/18
f 80/113/16 79/83/16 84/120/16 83/121/16
f 77/114/20 80/83/20 83/119/20 82/122/20
f 85/111/18 69/112/21 58/83/22 86/113/18
f 87/114/20 88/115/20 89/113/20 90/83/20
f 69/83/15 85/113/15 88/116/15 87/117/15
f 58/83/22 69/112/21 87/118/17 90/119/17
f 86/113/16 58/83/16 90/120/16 89/121/16
f 85/114/19 86/83/19 89/119/19 88/122/19
o com_m_w_clean_sh_01
v -31.277399 78.938408 -45.587887
v -31.277399 55.395107 -45.587891
v -31.277399 55.395107 -46.375294
v -31.277399 78.938408 -46.375290
v -48.915100 55.395107 -45.587891
v -48.915100 78.938408 -45.587887
v -48.915100 78.938408 -46.375290
v -48.915100 55.395107 -46.375294
vt 0.000000 23.543301
vt 0.000000 0.000000
vt -0.787400 0.000000
vt -0.787400 23.543301
vt 0.787400 23.543301
vt 0.787400 0.000000
vt -1.968500 23.543301
vt 15.669300 23.543301
vt 15.669300 0.000000
vt -1.968500 0.000000
vt -15.669300 23.543301
vt 1.968500 23.543301
vt 1.968500 0.000000
vt -15.669300 0.000000
vt -15.669300 0.787400
vt 1.968500 0.787400
vt -1.968500 0.787400
vt 15.669300 0.787400
vn 1.000000 -0.000000 0.000000
vn -1.000000 0.000000 0.000000
vn 0.000000 -0.000000 1.000000
vn 0.000000 0.000000 -1.000000
vn 0.000000 -1.000000 0.000000
vn 0.000000 1.000000 0.000000
usemtl wire_204204204.001
s 1
f 91/123/23 92/124/23 93/125/23 94/126/23
f 95/124/24 96/123/24 97/127/24 98/128/24
f 91/129/25 96/130/25 95/131/25 92/132/25
f 97/133/26 94/134/26 93/135/26 98/136/26
f 92/135/27 95/136/27 98/137/27 93/138/27
f 96/131/28 91/132/28 94/139/28 97/140/28
