# Blender v2.76 (sub 0) OBJ File: ''
# www.blender.org
mtllib com_m_non consumable_bottom.mtl
o com_m_b_non_cons_ctop_00
v -109.977997 32.548687 58.755302
v -109.977997 32.548695 23.322206
v -109.977997 31.549295 23.322206
v -109.977997 31.549290 58.755302
v -85.920601 32.548695 23.322206
v -85.920601 32.548687 58.755302
v -85.920601 31.549290 58.755302
v -85.920601 31.549295 23.322206
vt 0.934500 0.633900
vt 0.644500 0.633900
vt 0.644500 0.625700
vt 0.934500 0.625700
vt 0.440600 0.780800
vt 0.730600 0.780800
vt 0.730600 0.789000
vt 0.440600 0.789000
vt 0.292000 0.434300
vt 0.002000 0.434300
vt 0.002000 0.237400
vt 0.292000 0.237400
vt 0.440600 0.879700
vt 0.440600 0.871500
vt 0.637500 0.871500
vt 0.637500 0.879700
vt 0.591900 0.198900
vt 0.301900 0.198900
vt 0.301900 0.002000
vt 0.591900 0.002000
vt 0.440600 0.847600
vt 0.637500 0.847600
vt 0.637500 0.855800
vt 0.440600 0.855800
vn -1.000000 0.000000 0.000000
vn 1.000000 0.000000 0.000000
vn 0.000000 1.000000 0.000000
vn 0.000000 0.000000 -1.000000
vn 0.000000 -1.000000 -0.000000
vn 0.000000 0.000000 1.000000
usemtl wire_204204204
s 1
f 1/1/1 2/2/1 3/3/1 4/4/1
f 5/5/2 6/6/2 7/7/2 8/8/2
f 2/9/3 1/10/3 6/11/3 5/12/3
f 3/13/4 2/14/4 5/15/4 8/16/4
f 4/17/5 3/18/5 8/19/5 7/20/5
f 4/21/6 7/22/6 6/23/6 1/24/6
o com_m_b_non_cons_skirt_00
v -87.930702 0.039396 23.322201
v -87.930702 0.039390 58.755299
v -109.977997 0.039390 58.755299
v -109.977997 0.039396 23.322201
v -109.977997 3.976390 58.755299
v -109.977997 3.976396 23.322201
v -87.930702 3.976390 58.755299
v -87.930702 3.976396 23.322201
vt 0.354000 0.915800
vt 0.371700 0.915800
vt 0.371700 0.926900
vt 0.354000 0.926900
vt 0.644500 0.577800
vt 0.934500 0.577800
vt 0.934500 0.610000
vt 0.644500 0.610000
vt 0.372500 0.901300
vt 0.390200 0.901300
vt 0.390200 0.912300
vt 0.372500 0.912300
vt 0.730600 0.717200
vt 0.440600 0.717200
vt 0.440600 0.685000
vt 0.730600 0.685000
vt 0.621100 0.765100
vt 0.440600 0.765100
vt 0.440600 0.732900
vt 0.621100 0.732900
vt 0.548900 0.359400
vt 0.729300 0.359400
vt 0.729300 0.391700
vt 0.548900 0.391700
vn 0.000000 -1.000000 -0.000000
vn -1.000000 0.000000 0.000000
vn 0.000000 1.000000 0.000000
vn 1.000000 0.000000 0.000000
vn 0.000000 0.000000 -1.000000
vn 0.000000 0.000000 1.000000
usemtl wire_204204204
s 1
f 9/25/7 10/26/7 11/27/7 12/28/7
f 12/29/8 11/30/8 13/31/8 14/32/8
f 15/33/9 16/34/9 14/35/9 13/36/9
f 10/37/10 9/38/10 16/39/10 15/40/10
f 9/41/11 12/42/11 14/43/11 16/44/11
f 11/45/12 10/46/12 15/47/12 13/48/12
o com_m_b_non_cons_sh_00
v -87.930702 31.496096 23.361607
v -87.930702 17.795296 23.361605
v -87.930702 17.795290 58.715904
v -87.930702 31.496090 58.715904
v -87.143303 17.795290 58.715904
v -87.143303 31.496090 58.715904
v -87.143303 31.496096 23.361607
v -87.143303 17.795296 23.361605
v -87.930702 17.716597 23.361605
v -87.930702 4.015796 23.361601
v -87.930702 4.015790 58.715900
v -87.930702 17.716591 58.715904
v -87.143303 4.015790 58.715900
v -87.143303 17.716591 58.715904
v -87.143303 17.716597 23.361605
v -87.143303 4.015796 23.361601
vt 0.372100 0.934900
vt 0.372100 0.928000
vt 0.389800 0.928000
vt 0.389800 0.934900
vt 0.974300 0.854100
vt 0.862200 0.854100
vt 0.862200 0.847600
vt 0.974300 0.847600
vt 0.970100 0.901800
vt 0.858000 0.901800
vt 0.858000 0.895400
vt 0.970100 0.895400
vt 0.415400 0.946600
vt 0.397700 0.946600
vt 0.397700 0.946200
vt 0.415400 0.946200
vt 0.607500 0.114100
vt 0.607500 0.002000
vt 0.896900 0.002000
vt 0.896900 0.114100
vt 0.390200 0.913800
vt 0.372500 0.913800
vt 0.372500 0.913400
vt 0.390200 0.913400
vt 0.391000 0.922700
vt 0.391000 0.915800
vt 0.408700 0.915800
vt 0.408700 0.922700
vt 0.973700 0.877900
vt 0.861600 0.877900
vt 0.861600 0.871500
vt 0.973700 0.871500
vt 0.980400 0.355600
vt 0.868300 0.355600
vt 0.868300 0.349100
vt 0.980400 0.349100
vt 0.429100 0.936400
vt 0.411400 0.936400
vt 0.411400 0.936000
vt 0.429100 0.936000
vt 0.243200 0.562100
vt 0.243200 0.450000
vt 0.532600 0.450000
vt 0.532600 0.562100
vt 0.591200 0.221000
vt 0.301900 0.221000
vt 0.301900 0.214600
vt 0.591200 0.214600
vn -1.000000 0.000000 0.000000
vn 0.000000 0.000000 1.000000
vn 0.000000 0.000000 -1.000000
vn 0.000000 1.000000 0.000000
vn 1.000000 0.000000 0.000000
vn 0.000000 -1.000000 -0.000000
usemtl wire_204204204
s 1
f 17/49/13 18/50/13 19/51/13 20/52/13
f 20/53/14 19/54/14 21/55/14 22/56/14
f 18/57/15 17/58/15 23/59/15 24/60/15
f 17/61/16 20/62/16 22/63/16 23/64/16
f 24/65/17 23/66/17 22/67/17 21/68/17
f 19/69/18 18/70/18 24/71/18 21/72/18
f 25/73/13 26/74/13 27/75/13 28/76/13
f 28/77/14 27/78/14 29/79/14 30/80/14
f 26/81/15 25/82/15 31/83/15 32/84/15
f 25/85/16 28/86/16 30/87/16 31/88/16
f 32/89/17 31/90/17 30/91/17 29/92/17
f 27/93/18 26/94/18 32/95/18 29/96/18
o com_m_b_non_cons_handle_00
v -87.142998 12.582494 43.519104
v -87.142998 12.582494 43.138103
v -87.142998 11.795094 43.138103
v -87.142998 11.795094 43.519104
v -86.669800 11.795094 43.156605
v -86.669800 12.582494 43.156605
v -87.142998 11.795094 39.175705
v -87.142998 12.582494 39.175705
v -87.142998 12.582494 38.794704
v -87.142998 11.795094 38.794704
v -86.669800 11.795094 39.194202
v -86.669800 12.582494 39.194202
v -86.355598 12.582494 38.794704
v -86.355598 12.582494 43.519104
v -86.355598 11.795094 43.519104
v -86.355598 11.795094 38.794704
v -87.142998 26.362093 43.519104
v -87.142998 26.362093 43.138103
v -87.142998 25.574692 43.138103
v -87.142998 25.574692 43.519104
v -86.669800 25.574692 43.156605
v -86.669800 26.362093 43.156605
v -87.142998 25.574694 39.175705
v -87.142998 26.362095 39.175705
v -87.142998 26.362095 38.794704
v -87.142998 25.574694 38.794704
v -86.669800 25.574694 39.194202
v -86.669800 26.362095 39.194202
v -86.355598 26.362095 38.794704
v -86.355598 26.362093 43.519104
v -86.355598 25.574692 43.519104
v -86.355598 25.574694 38.794704
vt 0.921600 0.854800
vt 0.921600 0.822800
vt 0.987700 0.822800
vt 0.987700 0.854800
vt 0.937100 0.643900
vt 0.937100 0.683600
vt 0.871000 0.683600
vt 0.871000 0.643900
vt 0.890400 0.982000
vt 0.824300 0.982000
vt 0.824300 0.950000
vt 0.890400 0.950000
vt 0.010000 0.920000
vt 0.342700 0.920000
vt 0.342700 0.986100
vt 0.010000 0.986100
vt 0.826700 0.554400
vt 0.826700 0.620600
vt 0.794700 0.620600
vt 0.793100 0.580800
vt 0.430000 0.554400
vt 0.460400 0.580800
vt 0.430000 0.620600
vt 0.462000 0.620600
vt 0.876400 0.010000
vt 0.942600 0.010000
vt 0.942600 0.076100
vt 0.876400 0.076100
vt 0.043500 0.580800
vt 0.042000 0.620600
vt 0.010000 0.620600
vt 0.010000 0.554400
vt 0.376200 0.580800
vt 0.406700 0.554400
vt 0.406700 0.620600
vt 0.374700 0.620600
vt 0.876400 0.099400
vt 0.942600 0.099400
vt 0.942600 0.165600
vt 0.876400 0.165600
vt 0.458800 0.862500
vt 0.458800 0.822800
vt 0.524900 0.822800
vt 0.524900 0.862500
vt 0.826700 0.531100
vt 0.430000 0.531100
vt 0.430000 0.465000
vt 0.826700 0.465000
vt 0.824300 0.918900
vt 0.824300 0.886900
vt 0.890400 0.886900
vt 0.890400 0.918900
vt 0.962600 0.733300
vt 0.962600 0.773100
vt 0.896500 0.773100
vt 0.896500 0.733300
vt 0.987700 0.918900
vt 0.921600 0.918900
vt 0.921600 0.886900
vt 0.987700 0.886900
vt 0.377100 0.733300
vt 0.709800 0.733300
vt 0.709800 0.799400
vt 0.377100 0.799400
vt 0.406700 0.465000
vt 0.406700 0.531100
vt 0.374700 0.531100
vt 0.373100 0.491400
vt 0.010000 0.465000
vt 0.040400 0.491400
vt 0.010000 0.531100
vt 0.042000 0.531100
vt 0.733100 0.733300
vt 0.799200 0.733300
vt 0.799200 0.799400
vt 0.733100 0.799400
vt 0.476800 0.401900
vt 0.475200 0.441700
vt 0.443200 0.441700
vt 0.443200 0.375600
vt 0.809500 0.401900
vt 0.839900 0.375600
vt 0.839900 0.441700
vt 0.807900 0.441700
vt 0.863200 0.375600
vt 0.929300 0.375600
vt 0.929300 0.441700
vt 0.863200 0.441700
vt 0.548200 0.862500
vt 0.548200 0.822800
vt 0.614300 0.822800
vt 0.614300 0.862500
vt 0.406700 0.710000
vt 0.010000 0.710000
vt 0.010000 0.643900
vt 0.406700 0.643900
vn -1.000000 0.000000 0.000000
vn 0.039100 0.000000 -0.999200
vn 0.000000 1.000000 0.000000
vn 0.000000 0.000000 1.000000
vn 0.000000 -1.000000 0.000000
vn 0.000000 0.000000 -1.000000
vn -0.039100 0.000000 0.999200
vn -0.048700 0.000000 0.998800
vn 1.000000 0.000000 0.000000
usemtl wire_204204204
s 1
f 33/97/19 34/98/19 35/99/19 36/100/19
f 37/101/20 35/102/20 34/103/20 38/104/20
f 39/105/19 40/106/19 41/107/19 42/108/19
f 43/109/19 37/110/19 38/111/19 44/112/19
f 45/113/21 41/114/21 40/115/21 44/116/21
f 46/117/21 45/113/21 44/116/21 38/118/21
f 33/119/21 46/117/21 38/118/21 34/120/21
f 33/121/22 36/122/22 47/123/22 46/124/22
f 43/125/23 39/126/23 42/127/23 48/128/23
f 37/129/23 43/125/23 48/128/23 47/130/23
f 37/129/23 47/130/23 36/131/23 35/132/23
f 42/133/24 41/134/24 45/135/24 48/136/24
f 39/137/25 43/138/25 44/139/26 40/140/25
f 47/141/27 48/142/27 45/143/27 46/144/27
f 49/145/19 50/146/19 51/147/19 52/148/19
f 53/149/20 51/150/20 50/151/20 54/152/20
f 55/153/19 56/154/19 57/155/19 58/156/19
f 59/157/19 53/158/19 54/159/19 60/160/19
f 61/161/21 57/162/21 56/163/21 60/164/21
f 62/165/21 61/161/21 60/164/21 54/166/21
f 49/167/21 62/165/21 54/166/21 50/168/21
f 49/169/22 52/170/22 63/171/22 62/172/22
f 59/173/23 55/174/23 58/175/23 64/176/23
f 53/177/23 59/173/23 64/176/23 63/178/23
f 53/177/23 63/178/23 52/179/23 51/180/23
f 58/181/24 57/182/24 61/183/24 64/184/24
f 55/185/25 59/186/25 60/187/26 56/188/25
f 63/189/27 64/190/27 61/191/27 62/192/27
o com_m_b_non_cons_car_00
v -87.930702 3.976390 58.755299
v -87.930702 3.976390 58.046600
v -87.930702 31.535391 58.046604
v -87.930702 31.535391 58.755302
v -109.977997 3.976390 58.755299
v -109.977997 31.535391 58.755302
v -108.954399 31.535391 58.046604
v -108.954399 31.535391 58.401005
v -109.190598 31.535391 58.401005
v -109.977997 31.535391 58.046604
v -109.190598 31.535391 58.046604
v -108.954399 3.976390 58.401001
v -109.190598 3.976390 58.401001
v -109.190598 3.976390 58.046600
v -109.977997 3.976390 58.046600
v -108.954399 3.976390 58.046600
v -108.954399 4.685091 58.046600
v -108.954399 4.685096 24.030899
v -108.954399 4.330696 24.030899
v -108.954399 4.330690 58.046600
v -109.977997 3.976396 24.030899
v -87.930702 3.976396 24.030899
v -109.190598 4.685096 24.030899
v -109.190598 4.685091 58.046600
v -109.190598 4.330690 58.046600
v -109.190598 4.330696 24.030899
v -87.930702 4.685096 24.030899
v -87.930702 4.685091 58.046600
v -109.977997 4.685091 58.046600
v -109.977997 4.685096 24.030899
v -108.954399 4.330696 23.676600
v -108.954399 31.181097 23.676605
v -108.954399 31.181091 58.401005
v -108.954399 4.330690 58.401001
v -109.190598 31.181091 58.401005
v -109.190598 4.330690 58.401001
v -109.190598 31.181097 23.676605
v -109.190598 4.330696 23.676600
v -87.930702 3.976396 23.322201
v -109.977997 3.976396 23.322201
v -109.977997 31.535397 23.322206
v -87.930702 31.535397 23.322206
v -108.954399 3.976396 24.030899
v -108.954399 31.535397 24.030905
v -108.954399 31.535397 23.676605
v -108.954399 3.976396 23.676600
v -109.190598 3.976396 24.030899
v -109.190598 31.535397 24.030905
v -109.977997 31.535397 24.030905
v -109.190598 3.976396 23.676600
v -109.190598 31.535397 23.676605
v -87.930702 31.535397 24.030905
v -106.041000 31.535397 24.030905
v -106.041000 30.826796 24.030905
v -108.954399 31.181097 24.030905
v -108.954399 30.826796 24.030905
v -109.190598 31.181097 24.030905
v -109.977997 30.826796 24.030905
v -109.190598 30.826796 24.030905
v -106.041000 31.535391 58.046604
v -106.041000 30.826790 58.046604
v -108.954399 30.826790 58.046604
v -108.954399 31.181091 58.046604
v -109.190598 31.181091 58.046604
v -109.190598 30.826790 58.046604
v -109.977997 30.826790 58.046604
vt 0.415800 0.944000
vt 0.415800 0.943600
vt 0.429600 0.943600
vt 0.429600 0.944000
vt 0.307700 0.417900
vt 0.307700 0.237400
vt 0.533200 0.237400
vt 0.533200 0.417900
vt 0.409700 0.959300
vt 0.399100 0.959300
vt 0.399100 0.959100
vt 0.398600 0.958900
vt 0.399000 0.959100
vt 0.398600 0.959300
vt 0.399000 0.959300
vt 0.409700 0.958900
vt 0.383200 0.973700
vt 0.383200 0.974100
vt 0.372100 0.974100
vt 0.372600 0.973900
vt 0.372500 0.973900
vt 0.372500 0.973700
vt 0.372100 0.973700
vt 0.372600 0.973700
vt 0.416800 0.953600
vt 0.416800 0.953400
vt 0.430600 0.953400
vt 0.430600 0.953600
vt 0.416200 0.949100
vt 0.430000 0.949100
vt 0.430000 0.949200
vt 0.416200 0.949200
vt 0.746300 0.691400
vt 0.746300 0.685000
vt 0.971800 0.685000
vt 0.971800 0.691400
vt 0.416800 0.950600
vt 0.430600 0.950600
vt 0.430600 0.950800
vt 0.416800 0.950800
vt 0.971800 0.707100
vt 0.971800 0.712900
vt 0.746300 0.712900
vt 0.746300 0.707100
vt 0.367800 0.940200
vt 0.367800 0.950700
vt 0.354000 0.950700
vt 0.354000 0.940200
vt 0.428400 0.937700
vt 0.411400 0.937700
vt 0.411400 0.937500
vt 0.428400 0.937500
vt 0.371000 0.928000
vt 0.371000 0.939000
vt 0.354000 0.939000
vt 0.354000 0.928000
vt 0.354000 0.975100
vt 0.371000 0.975100
vt 0.371000 0.975300
vt 0.354000 0.975300
vt 0.389900 0.915800
vt 0.389900 0.926400
vt 0.372800 0.926400
vt 0.372800 0.915800
vt 0.398600 0.953600
vt 0.398600 0.953400
vt 0.415700 0.953400
vt 0.415700 0.953600
vt 0.410900 0.957400
vt 0.421900 0.957400
vt 0.421900 0.957800
vt 0.411400 0.957600
vt 0.411400 0.957800
vt 0.411300 0.957600
vt 0.411300 0.957800
vt 0.410900 0.957800
vt 0.398600 0.960800
vt 0.398600 0.960400
vt 0.399000 0.960400
vt 0.399000 0.960600
vt 0.409700 0.960800
vt 0.399100 0.960600
vt 0.399100 0.960400
vt 0.409700 0.960400
vt 0.636800 0.755000
vt 0.915100 0.755000
vt 0.915100 0.760800
vt 0.636800 0.760800
vt 0.371000 0.973900
vt 0.354000 0.973900
vt 0.354000 0.973600
vt 0.371000 0.973600
vt 0.636800 0.739300
vt 0.636800 0.732900
vt 0.915100 0.732900
vt 0.915100 0.739300
vt 0.354000 0.914700
vt 0.354000 0.901300
vt 0.371300 0.901300
vt 0.371300 0.914700
vt 0.367400 0.978000
vt 0.354000 0.978000
vt 0.354000 0.977900
vt 0.367400 0.977900
vt 0.428800 0.938900
vt 0.411400 0.938900
vt 0.411400 0.938800
vt 0.428800 0.938800
vt 0.412100 0.956300
vt 0.398600 0.956300
vt 0.398600 0.956200
vt 0.412100 0.956200
vt 0.415100 0.949200
vt 0.397700 0.949200
vt 0.397700 0.949100
vt 0.415100 0.949100
vt 0.002000 0.221700
vt 0.002000 0.002000
vt 0.286200 0.002000
vt 0.286200 0.221700
vt 0.227500 0.450000
vt 0.227500 0.630400
vt 0.002000 0.630400
vt 0.002000 0.450000
vt 0.430600 0.952300
vt 0.416800 0.952300
vt 0.416800 0.952100
vt 0.430600 0.952100
vt 0.746300 0.787200
vt 0.746300 0.780800
vt 0.971800 0.780800
vt 0.971800 0.787200
vt 0.415800 0.947700
vt 0.429600 0.947700
vt 0.429600 0.947900
vt 0.415800 0.947900
vt 0.405100 0.901300
vt 0.405100 0.911800
vt 0.391400 0.911800
vt 0.391400 0.901300
vt 0.666200 0.826100
vt 0.666200 0.831900
vt 0.440600 0.831900
vt 0.440600 0.826100
vt 0.409800 0.926300
vt 0.409800 0.926000
vt 0.410200 0.926000
vt 0.410200 0.926200
vt 0.420900 0.926300
vt 0.410300 0.926200
vt 0.410300 0.926000
vt 0.420900 0.926000
vt 0.372100 0.972200
vt 0.383200 0.972200
vt 0.383200 0.972600
vt 0.372600 0.972400
vt 0.372600 0.972600
vt 0.372500 0.972400
vt 0.372500 0.972600
vt 0.372100 0.972600
vt 0.405100 0.914400
vt 0.405100 0.914500
vt 0.391400 0.914500
vt 0.391400 0.914400
vt 0.391400 0.913300
vt 0.391400 0.912900
vt 0.405100 0.912900
vt 0.405100 0.913300
vt 0.368900 0.940200
vt 0.370900 0.940200
vt 0.370900 0.940500
vt 0.369400 0.940300
vt 0.369400 0.940500
vt 0.369300 0.940300
vt 0.368900 0.940500
vt 0.369300 0.940500
vt 0.391000 0.923800
vt 0.408000 0.923800
vt 0.408000 0.925800
vt 0.391000 0.925800
vt 0.414700 0.943600
vt 0.414700 0.945100
vt 0.397700 0.945100
vt 0.397700 0.943600
vt 0.368200 0.951800
vt 0.368200 0.952200
vt 0.366200 0.952200
vt 0.366700 0.952000
vt 0.366600 0.952000
vt 0.366600 0.951800
vt 0.366200 0.951800
vt 0.366700 0.951800
vt 0.440600 0.804700
vt 0.719000 0.804700
vt 0.719000 0.810500
vt 0.440600 0.810500
vt 0.415600 0.951000
vt 0.398600 0.951000
vt 0.398600 0.950600
vt 0.415600 0.950600
vt 0.398600 0.952100
vt 0.415600 0.952100
vt 0.415600 0.952300
vt 0.398600 0.952300
vt 0.644500 0.656000
vt 0.644500 0.649600
vt 0.922900 0.649600
vt 0.922900 0.656000
vt 0.411400 0.940200
vt 0.411400 0.940100
vt 0.428400 0.940100
vt 0.428400 0.940200
vt 0.414700 0.947900
vt 0.397700 0.947900
vt 0.397700 0.947700
vt 0.414700 0.947700
vn 1.000000 0.000000 0.000000
vn 0.000000 -0.000000 1.000000
vn 0.000000 1.000000 -0.000000
vn 0.000000 -1.000000 -0.000000
vn 0.000000 0.000000 -1.000000
vn -1.000000 -0.000000 0.000000
vn -0.698600 -0.577300 0.422700
vn 0.000500 -0.000000 1.000000
vn -0.499900 0.500100 0.707100
vn -0.500100 0.499800 -0.707100
usemtl wire_204204204
s 1
f 65/193/28 66/194/28 67/195/28 68/196/28
f 69/197/29 65/198/29 68/199/29 70/200/29
f 67/201/30 71/202/30 72/203/30 70/204/30
f 70/204/30 72/203/30 73/205/30 74/206/30
f 73/205/30 75/207/30 74/206/30
f 67/201/30 70/204/30 68/208/30
f 66/209/31 65/210/31 69/211/31 76/212/31
f 77/213/31 76/212/31 69/211/31 78/214/31
f 69/211/31 79/215/31 78/214/31
f 80/216/31 66/209/31 76/212/31
f 73/217/32 72/218/32 76/219/32 77/220/32
f 71/221/33 80/222/33 76/223/33 72/224/33
f 74/225/32 75/226/32 78/227/32 79/228/32
f 78/229/28 75/230/28 73/231/28 77/232/28
f 79/233/33 69/234/33 70/235/33 74/236/33
f 66/237/32 80/238/32 71/239/32 67/240/32
f 81/241/33 82/242/33 83/243/33 84/244/33
f 66/245/34 79/246/35 85/247/31 86/248/31
f 87/249/28 88/250/28 89/251/28 90/252/28
f 91/253/30 82/254/30 81/255/30 92/256/30
f 89/257/30 84/258/30 83/259/30 90/260/30
f 79/261/35 66/262/34 92/263/29 84/264/29
f 92/263/29 81/265/29 84/264/29
f 79/261/35 84/264/29 89/266/29 88/267/29
f 79/261/35 88/267/29 93/268/29
f 85/269/32 94/270/32 87/271/32 90/272/32
f 86/273/32 85/269/32 90/272/32 83/274/32
f 86/273/32 83/274/32 82/275/32 91/276/32
f 85/277/33 79/278/33 93/279/33 94/280/33
f 66/281/28 86/282/28 91/283/28 92/284/28
f 93/285/30 88/286/30 87/287/30 94/288/30
f 95/289/28 96/290/28 97/291/28 98/292/28
f 99/293/29 100/294/29 98/295/29 97/296/29
f 101/297/30 99/298/30 97/299/30 96/300/30
f 102/301/32 101/302/32 96/303/32 95/304/32
f 100/305/31 102/306/31 95/307/31 98/308/31
f 101/309/33 102/310/33 100/311/33 99/312/33
f 103/313/32 104/314/32 105/315/32 106/316/32
f 107/317/33 108/318/33 109/319/33 110/320/33
f 85/321/29 111/322/29 112/323/29 113/324/29
f 114/325/28 115/326/28 112/327/28 111/328/28
f 116/329/29 108/330/29 107/331/29 86/332/29
f 104/333/33 85/334/33 113/335/33 105/336/33
f 105/337/30 113/338/30 112/339/30 115/340/30
f 106/341/30 105/337/30 115/340/30 109/342/30
f 106/341/30 109/342/30 108/343/30 116/344/30
f 104/345/31 103/346/31 86/347/31 110/348/31
f 86/347/31 107/349/31 110/348/31
f 104/345/31 110/348/31 114/350/31 111/351/31
f 104/345/31 111/351/31 85/352/31
f 109/353/29 115/354/29 114/355/29 110/356/29
f 86/357/28 103/358/28 106/359/28 116/360/28
f 113/361/32 117/362/32 118/363/32 119/364/32
f 118/363/32 120/365/32 119/364/32
f 113/361/32 119/364/32 121/366/32 122/367/32
f 123/368/32 122/367/32 121/366/32
f 124/369/30 117/370/30 113/371/36 74/372/37
f 125/373/31 126/374/31 120/375/31 118/376/31
f 125/377/29 124/378/29 74/379/29 127/380/29
f 128/381/29 127/380/29 74/379/29 129/382/29
f 74/379/29 130/383/29 129/382/29
f 126/384/29 125/377/29 127/380/29
f 122/385/33 130/386/33 74/387/37 113/388/36
f 125/389/28 118/390/28 117/391/28 124/392/28
f 120/393/33 126/394/33 127/395/33 119/396/33
f 122/397/31 123/398/31 129/399/31 130/400/31
f 121/401/31 119/402/31 127/403/31 128/404/31
f 129/405/28 123/406/28 121/407/28 128/408/28
